<mxfile host="app.diagrams.net" agent="Mozilla/5.0 (Macintosh; Intel Mac OS X 10_15_7) AppleWebKit/537.36 (KHTML, like Gecko) Chrome/137.0.0.0 Safari/537.36" version="27.0.9">
  <diagram name="Processus Build" id="build">
    <mxGraphModel dx="946" dy="644" grid="1" gridSize="10" guides="1" tooltips="1" connect="1" arrows="1" fold="1" page="1" pageScale="1" pageWidth="827" pageHeight="1169" math="0" shadow="0">
      <root>
        <mxCell id="0" />
        <mxCell id="1" parent="0" />
        <mxCell id="title" value="R-Type 2 - Processus de Build" style="text;html=1;strokeColor=none;fillColor=none;align=center;verticalAlign=middle;whiteSpace=wrap;rounded=0;fontSize=18;fontStyle=1;" parent="1" vertex="1">
          <mxGeometry x="200" y="40" width="400" height="30" as="geometry" />
        </mxCell>
        <mxCell id="source" value="📁 Code Source&#xa;• HTML, CSS, JS&#xa;• SVG Assets&#xa;• Tests (182)&#xa;• Documentation" style="rounded=1;whiteSpace=wrap;html=1;fillColor=#f0f0f0;strokeColor=#666666;fontSize=11;" parent="1" vertex="1">
          <mxGeometry x="80" y="120" width="120" height="80" as="geometry" />
        </mxCell>
        <mxCell id="build-script" value="🔨 build.sh&#xa;Script de Build&#xa;Automatisé" style="rounded=1;whiteSpace=wrap;html=1;fillColor=#dae8fc;strokeColor=#6c8ebf;fontSize=12;fontStyle=1;" parent="1" vertex="1">
          <mxGeometry x="280" y="120" width="120" height="80" as="geometry" />
        </mxCell>
        <mxCell id="dist" value="📦 dist/&#xa;Build Optimisé&#xa;Prêt déploiement" style="rounded=1;whiteSpace=wrap;html=1;fillColor=#d5e8d4;strokeColor=#82b366;fontSize=12;fontStyle=1;" parent="1" vertex="1">
          <mxGeometry x="480" y="120" width="120" height="80" as="geometry" />
        </mxCell>
        <mxCell id="step1" value="1️⃣ Vérification&#xa;Dépendances" style="rounded=1;whiteSpace=wrap;html=1;fillColor=#e1d5e7;strokeColor=#9673a6;fontSize=10;" parent="1" vertex="1">
          <mxGeometry x="80" y="240" width="100" height="50" as="geometry" />
        </mxCell>
        <mxCell id="step2" value="2️⃣ Nettoyage&#xa;&amp; Setup" style="rounded=1;whiteSpace=wrap;html=1;fillColor=#e1d5e7;strokeColor=#9673a6;fontSize=10;" parent="1" vertex="1">
          <mxGeometry x="200" y="240" width="100" height="50" as="geometry" />
        </mxCell>
        <mxCell id="step3" value="3️⃣ Minification&#xa;JavaScript" style="rounded=1;whiteSpace=wrap;html=1;fillColor=#fff2cc;strokeColor=#d6b656;fontSize=10;" parent="1" vertex="1">
          <mxGeometry x="320" y="240" width="100" height="50" as="geometry" />
        </mxCell>
        <mxCell id="step4" value="4️⃣ Optimisation&#xa;SVG Assets" style="rounded=1;whiteSpace=wrap;html=1;fillColor=#d5e8d4;strokeColor=#82b366;fontSize=10;" parent="1" vertex="1">
          <mxGeometry x="440" y="240" width="100" height="50" as="geometry" />
        </mxCell>
        <mxCell id="step5" value="5️⃣ Métadonnées&#xa;Build Info" style="rounded=1;whiteSpace=wrap;html=1;fillColor=#f8cecc;strokeColor=#b85450;fontSize=10;" parent="1" vertex="1">
          <mxGeometry x="560" y="240" width="100" height="50" as="geometry" />
        </mxCell>
        <mxCell id="flow1" style="edgeStyle=orthogonalEdgeStyle;rounded=0;orthogonalLoop=1;jettySize=auto;html=1;exitX=1;exitY=0.5;exitDx=0;exitDy=0;entryX=0;entryY=0.5;entryDx=0;entryDy=0;strokeWidth=3;strokeColor=#2D7600;" parent="1" source="source" target="build-script" edge="1">
          <mxGeometry relative="1" as="geometry" />
        </mxCell>
        <mxCell id="flow2" style="edgeStyle=orthogonalEdgeStyle;rounded=0;orthogonalLoop=1;jettySize=auto;html=1;exitX=1;exitY=0.5;exitDx=0;exitDy=0;entryX=0;entryY=0.5;entryDx=0;entryDy=0;strokeWidth=3;strokeColor=#1BA1E2;" parent="1" source="build-script" target="dist" edge="1">
          <mxGeometry relative="1" as="geometry" />
        </mxCell>
        <mxCell id="optimizations" value="⚡ Optimisations Appliquées&#xa;&#xa;JavaScript:&#xa;• Suppression commentaires&#xa;• Minification espaces&#xa;• Réduction: -30% taille&#xa;&#xa;SVG:&#xa;• Nettoyage attributs&#xa;• Optimisation structure&#xa;• Réduction: -20% taille&#xa;&#xa;Build:&#xa;• Métadonnées Git&#xa;• Timestamp build&#xa;• Version tracking" style="text;html=1;strokeColor=#d6b656;fillColor=#fff2cc;align=left;verticalAlign=top;whiteSpace=wrap;rounded=1;fontSize=10;spacingLeft=11;" parent="1" vertex="1">
          <mxGeometry x="80" y="340" width="200" height="240" as="geometry" />
        </mxCell>
        <mxCell id="environments" value="🌍 Environnements Build&#xa;&#xa;DEV:&#xa;• Tous fichiers inclus&#xa;• Tests copiés&#xa;• Debug activé&#xa;• Pas de minification&#xa;&#xa;STAGING:&#xa;• Tests inclus&#xa;• Optimisation légère&#xa;• Monitoring activé&#xa;&#xa;PROD:&#xa;• Build optimisé complet&#xa;• Pas de fichiers test&#xa;• Minification maximale&#xa;• Performance focus" style="text;html=1;strokeColor=#82b366;fillColor=#d5e8d4;align=left;verticalAlign=top;whiteSpace=wrap;rounded=1;fontSize=10;spacingLeft=22;" parent="1" vertex="1">
          <mxGeometry x="320" y="340" width="200" height="240" as="geometry" />
        </mxCell>
        <mxCell id="commands" value="🔧 Commandes Build&#xa;&#xa;Build manuel:&#xa;./build.sh prod&#xa;&#xa;Avec Makefile:&#xa;make build ENVIRONMENT=prod&#xa;&#xa;Debug build:&#xa;DEBUG=1 ./build.sh dev&#xa;&#xa;Nettoyage:&#xa;make clean&#xa;&#xa;Validation:&#xa;• Vérification dépendances&#xa;• Test intégrité fichiers&#xa;• Validation structure" style="text;html=1;strokeColor=#9673a6;fillColor=#e1d5e7;align=left;verticalAlign=top;whiteSpace=wrap;rounded=1;fontSize=10;spacingLeft=19;" parent="1" vertex="1">
          <mxGeometry x="560" y="340" width="180" height="240" as="geometry" />
        </mxCell>
      </root>
    </mxGraphModel>
  </diagram>
</mxfile>
